<svg width="512" height="512" viewBox="0 0 100 100" fill="none" xmlns="http://www.w3.org/2000/svg">
  <defs>
    <linearGradient id="coreGradient" x1="0%" y1="0%" x2="100%" y2="100%">
      <stop offset="0%" stopColor="#22d3ee" />
      <stop offset="100%" stopColor="#3b82f6" />
    </linearGradient>
    
    <linearGradient id="shieldGradient" x1="0%" y1="0%" x2="0%" y2="100%">
      <stop offset="0%" stopColor="#ffffff" />
      <stop offset="100%" stopColor="#f0f9ff" /> </linearGradient>

    <radialGradient id="centerPulse" cx="50%" cy="50%" r="50%" fx="50%" fy="50%">
      <stop offset="0%" stopColor="#ffffff" stopOpacity="1" />
      <stop offset="40%" stopColor="#22d3ee" stopOpacity="0.8" />
      <stop offset="100%" stopColor="#3b82f6" stopOpacity="0" />
    </radialGradient>

    <filter id="subtleGlow" x="-20%" y="-20%" width="140%" height="140%">
      <feGaussianBlur in="SourceGraphic" stdDeviation="1" result="blur" />
      <feColorMatrix in="blur" type="matrix" values="
          0 0 0 0 0.13 
          0 0 0 0 0.82 
          0 0 0 0 0.93 
          0 0 0 0.5 0" result="coloredBlur"/>
      <feMerge>
        <feMergeNode in="coloredBlur"/>
        <feMergeNode in="SourceGraphic"/>
      </feMerge>
    </filter>
  </defs>

  <g filter="url(#subtleGlow)">
      <path d="M 50 11 L 21 40 L 21 53 L 11 53 L 11 35 L 45 1 Z" fill="url(#shieldGradient)" stroke="#22d3ee" stroke-width="0.5" stroke-opacity="0.5"/>
      <path d="M 50 89 L 79 60 L 79 47 L 89 47 L 89 65 L 55 99 Z" fill="url(#shieldGradient)" stroke="#3b82f6" stroke-width="0.5" stroke-opacity="0.5"/>
      
      <g fill="url(#coreGradient)">
        <rect x="23" y="42" width="8" height="1.5" rx="0.75"/>
        <circle cx="23" cy="42.75" r="1.2" fill="#fff"/> <rect x="23" y="47" width="5" height="1.5" rx="0.75"/>
        <circle cx="23" cy="47.75" r="1.2" fill="#fff"/> <rect x="69" y="56.5" width="8" height="1.5" rx="0.75"/>
        <circle cx="77" cy="57.25" r="1.2" fill="#fff"/> <rect x="72" y="51.5" width="5" height="1.5" rx="0.75"/>
        <circle cx="77" cy="52.25" r="1.2" fill="#fff"/> </g>
  </g>

  <g transform="rotate(45 50 50)">
    <rect x="36" y="36" width="28" height="28" rx="4" fill="url(#coreGradient)" stroke="#fff" stroke-width="0.5" stroke-opacity="0.3"/>
    
    <path d="M 36 50 H 64 M 50 36 V 64" stroke="#fff" stroke-width="0.5" stroke-opacity="0.2"/>
    <rect x="43" y="43" width="14" height="14" rx="1" stroke="#fff" stroke-width="0.5" stroke-opacity="0.3" fill="none"/>
  </g>
  
  <circle cx="50" cy="50" r="6" fill="url(#centerPulse)">
    <animate attributeName="r" values="5;6;5" dur="2s" repeatCount="indefinite" />
    <animate attributeName="opacity" values="0.8;1;0.8" dur="2s" repeatCount="indefinite" />
  </circle>
</svg>